<svg width="16" height="17" viewBox="0 0 16 17" fill="none" xmlns="http://www.w3.org/2000/svg">
<mask id="mask0_9917_4141" style="mask-type:alpha" maskUnits="userSpaceOnUse" x="0" y="0" width="16" height="17">
<rect y="0.5" width="16" height="16" fill="#D9D9D9"/>
</mask>
<g mask="url(#mask0_9917_4141)">
<path d="M3.53301 14.1663C3.19967 14.1663 2.91634 14.0497 2.68301 13.8163C2.44967 13.583 2.33301 13.2997 2.33301 12.9663V4.03301C2.33301 3.69967 2.44967 3.41634 2.68301 3.18301C2.91634 2.94967 3.19967 2.83301 3.53301 2.83301H7.74967V3.83301H3.53301C3.48856 3.83301 3.44412 3.85523 3.39967 3.89967C3.35523 3.94412 3.33301 3.98856 3.33301 4.03301V12.9663C3.33301 13.0108 3.35523 13.0552 3.39967 13.0997C3.44412 13.1441 3.48856 13.1663 3.53301 13.1663H12.4663C12.5108 13.1663 12.5552 13.1441 12.5997 13.0997C12.6441 13.0552 12.6663 13.0108 12.6663 12.9663V8.74967H13.6663V12.9663C13.6663 13.2997 13.5497 13.583 13.3163 13.8163C13.083 14.0497 12.7997 14.1663 12.4663 14.1663H3.53301ZM6.48301 10.7163L5.78301 10.0163L11.9663 3.83301H9.33301V2.83301H13.6663V7.16634H12.6663V4.53301L6.48301 10.7163Z" fill="#1C1B1F"/>
</g>
</svg>
