<svg width="15" height="14" viewBox="0 0 15 14" fill="none" xmlns="http://www.w3.org/2000/svg">
<path d="M13.944 0.148506L14.651 0.856006L7.15597 8.351L6.44897 7.64401L13.944 0.148506Z" fill="#212121"/>
<path d="M14.8 5H13.8V1H9.80005V0H14.8V5ZM12.3 14H2.30005C1.45005 14 0.800049 13.35 0.800049 12.5V2.5C0.800049 1.65 1.45005 1 2.30005 1H7.80005V2H2.30005C2.00005 2 1.80005 2.2 1.80005 2.5V12.5C1.80005 12.8 2.00005 13 2.30005 13H12.3C12.6 13 12.8 12.8 12.8 12.5V7H13.8V12.5C13.8 13.35 13.15 14 12.3 14Z" fill="#212121"/>
</svg>
