<svg width="202" height="25" viewBox="0 0 202 25" fill="none" xmlns="http://www.w3.org/2000/svg">
<g clip-path="url(#clip0_532_258)">
<path d="M7.06592 22.9416C8.57061 23.6212 10.2412 24 12 24C18.6272 24 24 18.6272 24 12C24 10.2412 23.6212 8.57156 22.9415 7.06593C20.6119 14.6381 14.6381 20.6119 7.06592 22.9416Z" fill="#00BBF0"/>
<path d="M14.8125 4.03125V14.3438C14.8125 17.4478 12.2916 19.9688 9.1875 19.9688V9.65625C9.1875 6.55219 11.7084 4.03125 14.8125 4.03125Z" fill="#00BBF0"/>
<path d="M16.9341 1.05844C15.4284 0.37875 13.7587 0 12 0C5.37281 0 0 5.37281 0 12C0 13.7587 0.37875 15.4284 1.05844 16.9341C3.38719 9.36188 9.36188 3.38719 16.9341 1.05844Z" fill="#00BBF0"/>
</g>
<path d="M37.52 20V6.68H32.144V3.08H47.312V6.68H41.936V20H37.52ZM51.4989 20.264C50.4109 20.264 49.4029 20.152 48.4749 19.928C47.5629 19.704 46.7869 19.392 46.1469 18.992L47.1309 16.232C47.7229 16.568 48.4109 16.848 49.1949 17.072C49.9789 17.28 50.7549 17.384 51.5229 17.384C52.1149 17.384 52.5389 17.304 52.7949 17.144C53.0509 16.968 53.1789 16.744 53.1789 16.472C53.1789 16.232 53.0909 16.056 52.9149 15.944C52.7549 15.816 52.5229 15.72 52.2189 15.656L49.5549 15.224C48.5629 15.064 47.7949 14.704 47.2509 14.144C46.7069 13.584 46.4349 12.856 46.4349 11.96C46.4349 11.128 46.6669 10.416 47.1309 9.824C47.5949 9.216 48.2429 8.752 49.0749 8.432C49.9069 8.096 50.8589 7.928 51.9309 7.928C52.7789 7.928 53.6189 8.032 54.4509 8.24C55.2829 8.432 56.0109 8.752 56.6349 9.2L55.5789 11.912C55.1149 11.592 54.5389 11.328 53.8509 11.12C53.1629 10.896 52.5469 10.784 52.0029 10.784C51.3469 10.784 50.8829 10.88 50.6109 11.072C50.3389 11.248 50.2029 11.464 50.2029 11.72C50.2029 12.152 50.4989 12.416 51.0909 12.512L53.7549 12.968C54.7789 13.128 55.5629 13.48 56.1069 14.024C56.6669 14.552 56.9469 15.272 56.9469 16.184C56.9469 17.48 56.4509 18.488 55.4589 19.208C54.4669 19.912 53.1469 20.264 51.4989 20.264ZM63.1171 20.264C61.5811 20.264 60.4451 19.848 59.7091 19.016C58.9891 18.168 58.6291 16.88 58.6291 15.152V8.192H62.9011V15.272C62.9011 16.424 63.3971 17 64.3891 17C64.9651 17 65.4371 16.792 65.8051 16.376C66.1731 15.96 66.3571 15.408 66.3571 14.72V8.192H70.6291V20H66.4531V18.536C65.6851 19.688 64.5731 20.264 63.1171 20.264ZM73.0912 6.152V2.288H77.6032V6.152H73.0912ZM70.9312 24.632L70.6432 21.632L71.8192 21.488C72.3152 21.424 72.6752 21.272 72.8992 21.032C73.1232 20.792 73.2352 20.424 73.2352 19.928V8.192H77.5072V19.328C77.5072 20.512 77.3312 21.472 76.9792 22.208C76.6432 22.944 76.0672 23.496 75.2512 23.864C74.4512 24.232 73.3632 24.464 71.9872 24.56L70.9312 24.632ZM79.8858 6.152V2.288H84.3738V6.152H79.8858ZM80.0058 20V8.192H84.2778V20H80.0058ZM86.8038 20V8.192H90.9558V9.776C91.3238 9.216 91.8118 8.768 92.4198 8.432C93.0438 8.096 93.7558 7.928 94.5558 7.928C95.3558 7.928 96.0438 8.104 96.6198 8.456C97.2118 8.808 97.6598 9.352 97.9638 10.088C98.3638 9.4 98.9078 8.872 99.5958 8.504C100.284 8.12 101.044 7.928 101.876 7.928C103.252 7.928 104.268 8.344 104.924 9.176C105.596 9.992 105.932 11.272 105.932 13.016V20H101.66V13.136C101.66 12.448 101.556 11.952 101.348 11.648C101.14 11.344 100.796 11.192 100.316 11.192C99.7238 11.192 99.2678 11.4 98.9478 11.816C98.6438 12.232 98.4918 12.824 98.4918 13.592V20H94.2198V13.136C94.2198 12.448 94.1158 11.952 93.9078 11.648C93.6998 11.344 93.3558 11.192 92.8758 11.192C92.2998 11.192 91.8518 11.4 91.5318 11.816C91.2278 12.232 91.0758 12.824 91.0758 13.592V20H86.8038ZM112.828 20.264C111.292 20.264 110.156 19.848 109.42 19.016C108.7 18.168 108.34 16.88 108.34 15.152V8.192H112.612V15.272C112.612 16.424 113.108 17 114.1 17C114.676 17 115.148 16.792 115.516 16.376C115.884 15.96 116.068 15.408 116.068 14.72V8.192H120.34V20H116.164V18.536C115.396 19.688 114.284 20.264 112.828 20.264ZM122.826 20V8.192H126.978V10.184C127.522 8.824 128.698 8.08 130.506 7.952L131.682 7.856L131.922 11.456L129.594 11.672C128.746 11.752 128.13 11.992 127.746 12.392C127.362 12.776 127.17 13.352 127.17 14.12V20H122.826ZM137.219 20.264C136.307 20.264 135.499 20.096 134.795 19.76C134.107 19.424 133.563 18.968 133.163 18.392C132.779 17.8 132.587 17.128 132.587 16.376C132.587 15.528 132.811 14.856 133.259 14.36C133.707 13.848 134.427 13.488 135.419 13.28C136.411 13.056 137.731 12.944 139.379 12.944H140.291V12.608C140.291 12.032 140.139 11.624 139.835 11.384C139.547 11.144 139.043 11.024 138.323 11.024C137.715 11.024 137.043 11.12 136.307 11.312C135.571 11.504 134.851 11.8 134.147 12.2L133.067 9.392C133.467 9.104 133.979 8.848 134.603 8.624C135.227 8.4 135.883 8.232 136.571 8.12C137.259 7.992 137.907 7.928 138.515 7.928C140.483 7.928 141.939 8.352 142.883 9.2C143.843 10.048 144.323 11.384 144.323 13.208V20H140.339V18.32C140.131 18.928 139.755 19.408 139.211 19.76C138.667 20.096 138.003 20.264 137.219 20.264ZM138.179 17.48C138.771 17.48 139.267 17.288 139.667 16.904C140.083 16.52 140.291 16.016 140.291 15.392V14.96H139.379C138.435 14.96 137.739 15.064 137.291 15.272C136.859 15.464 136.643 15.776 136.643 16.208C136.643 16.576 136.771 16.88 137.027 17.12C137.299 17.36 137.683 17.48 138.179 17.48ZM153.911 20V3.08H158.327V16.328H165.863V20H153.911ZM171.766 20.264C170.854 20.264 170.046 20.096 169.342 19.76C168.654 19.424 168.11 18.968 167.71 18.392C167.326 17.8 167.134 17.128 167.134 16.376C167.134 15.528 167.358 14.856 167.806 14.36C168.254 13.848 168.974 13.488 169.966 13.28C170.958 13.056 172.278 12.944 173.926 12.944H174.838V12.608C174.838 12.032 174.686 11.624 174.382 11.384C174.094 11.144 173.59 11.024 172.87 11.024C172.262 11.024 171.59 11.12 170.854 11.312C170.118 11.504 169.398 11.8 168.694 12.2L167.614 9.392C168.014 9.104 168.526 8.848 169.15 8.624C169.774 8.4 170.43 8.232 171.118 8.12C171.806 7.992 172.454 7.928 173.062 7.928C175.03 7.928 176.486 8.352 177.43 9.2C178.39 10.048 178.87 11.384 178.87 13.208V20H174.886V18.32C174.678 18.928 174.302 19.408 173.758 19.76C173.214 20.096 172.55 20.264 171.766 20.264ZM172.726 17.48C173.318 17.48 173.814 17.288 174.214 16.904C174.63 16.52 174.838 16.016 174.838 15.392V14.96H173.926C172.982 14.96 172.286 15.064 171.838 15.272C171.406 15.464 171.19 15.776 171.19 16.208C171.19 16.576 171.318 16.88 171.574 17.12C171.846 17.36 172.23 17.48 172.726 17.48ZM189.079 20.264C188.295 20.264 187.575 20.096 186.919 19.76C186.263 19.408 185.775 18.952 185.455 18.392V20H181.303V3.08H185.575V9.608C185.911 9.096 186.391 8.688 187.015 8.384C187.655 8.08 188.343 7.928 189.079 7.928C190.103 7.928 190.999 8.176 191.767 8.672C192.551 9.168 193.159 9.88 193.591 10.808C194.023 11.72 194.239 12.816 194.239 14.096C194.239 15.36 194.015 16.456 193.567 17.384C193.135 18.312 192.527 19.024 191.743 19.52C190.975 20.016 190.087 20.264 189.079 20.264ZM187.735 17.12C188.375 17.12 188.903 16.88 189.319 16.4C189.735 15.92 189.943 15.152 189.943 14.096C189.943 13.024 189.735 12.256 189.319 11.792C188.903 11.312 188.375 11.072 187.735 11.072C187.079 11.072 186.543 11.312 186.127 11.792C185.711 12.256 185.503 13.024 185.503 14.096C185.503 15.152 185.711 15.92 186.127 16.4C186.543 16.88 187.079 17.12 187.735 17.12ZM195.665 20V15.632H200.105V20H195.665Z" fill="#212121"/>
<defs>
<clipPath id="clip0_532_258">
<rect width="24" height="24" fill="white"/>
</clipPath>
</defs>
</svg>
